<svg width="320" height="360" viewBox="0 0 320 360" fill="none" xmlns="http://www.w3.org/2000/svg">
  <rect width="320" height="360" rx="36" fill="url(#bg)"/>
  <ellipse cx="160" cy="306" rx="86" ry="20" fill="#8D552D" fill-opacity="0.22"/>
  <rect x="103" y="55" width="114" height="42" rx="16" fill="#341508"/>
  <rect x="92" y="86" width="136" height="188" rx="38" fill="#D8B098"/>
  <rect x="102" y="106" width="116" height="134" rx="24" fill="#FFF6EF"/>
  <rect x="102" y="106" width="116" height="26" rx="13" fill="#6B3211"/>
  <text x="160" y="123" text-anchor="middle" fill="#FFF8F1" font-family="Arial, sans-serif" font-size="11" font-weight="700" letter-spacing="2">PREMIUM</text>
  <text x="160" y="165" text-anchor="middle" fill="#4A2412" font-family="Georgia, serif" font-size="22" font-weight="700">Chocolate</text>
  <text x="160" y="193" text-anchor="middle" fill="#4A2412" font-family="Georgia, serif" font-size="22" font-weight="700">Protein</text>
  <text x="160" y="219" text-anchor="middle" fill="#8D6449" font-family="Arial, sans-serif" font-size="11" font-weight="700" letter-spacing="1.8">FITMOONGFALI</text>
  <rect x="126" y="245" width="20" height="20" rx="4" fill="#8B4B2C"/>
  <rect x="150" y="252" width="18" height="18" rx="4" fill="#B56B43"/>
  <rect x="172" y="244" width="22" height="22" rx="4" fill="#6C351D"/>
  <path d="M108 78C108 69.1634 115.163 62 124 62H196C204.837 62 212 69.1634 212 78V92H108V78Z" fill="#6A3812" fill-opacity="0.42"/>
  <defs>
    <linearGradient id="bg" x1="160" y1="0" x2="160" y2="360" gradientUnits="userSpaceOnUse">
      <stop stop-color="#FFF8F2"/>
      <stop offset="1" stop-color="#E8CCBC"/>
    </linearGradient>
  </defs>
</svg>
