<svg width="320" height="360" viewBox="0 0 320 360" fill="none" xmlns="http://www.w3.org/2000/svg">
  <rect width="320" height="360" rx="36" fill="url(#bg)"/>
  <ellipse cx="160" cy="306" rx="86" ry="20" fill="#C6935D" fill-opacity="0.22"/>
  <rect x="103" y="55" width="114" height="42" rx="16" fill="#4F2A10"/>
  <rect x="92" y="86" width="136" height="188" rx="38" fill="#F3D9BE"/>
  <rect x="102" y="106" width="116" height="134" rx="24" fill="#FFF7EF"/>
  <rect x="102" y="106" width="116" height="26" rx="13" fill="#A35214"/>
  <text x="160" y="123" text-anchor="middle" fill="#FFF8F1" font-family="Arial, sans-serif" font-size="11" font-weight="700" letter-spacing="2">SIGNATURE</text>
  <text x="160" y="165" text-anchor="middle" fill="#5A3317" font-family="Georgia, serif" font-size="24" font-weight="700">Classic</text>
  <text x="160" y="193" text-anchor="middle" fill="#5A3317" font-family="Georgia, serif" font-size="24" font-weight="700">Creamy</text>
  <text x="160" y="219" text-anchor="middle" fill="#8D6449" font-family="Arial, sans-serif" font-size="11" font-weight="700" letter-spacing="1.8">FITMOONGFALI</text>
  <circle cx="136" cy="257" r="8" fill="#C27A41"/>
  <circle cx="160" cy="257" r="8" fill="#D8985F"/>
  <circle cx="184" cy="257" r="8" fill="#B9672D"/>
  <path d="M108 78C108 69.1634 115.163 62 124 62H196C204.837 62 212 69.1634 212 78V92H108V78Z" fill="#6A3812" fill-opacity="0.42"/>
  <defs>
    <linearGradient id="bg" x1="160" y1="0" x2="160" y2="360" gradientUnits="userSpaceOnUse">
      <stop stop-color="#FFF9F2"/>
      <stop offset="1" stop-color="#F1D9C2"/>
    </linearGradient>
  </defs>
</svg>
